<svg xmlns="http://www.w3.org/2000/svg" version="1.0" viewBox="0 0 252 252"><path fill="#BFBFBF" fill-opacity=".5" d="M188.3 125.5c0 3.3.2 4.5.4 2.7s.2-4.5 0-6-.4 0-.4 3.3m-67 63.2c.9.2 2.3.2 3 0 .6-.3-.1-.5-1.8-.5-1.6 0-2.2.2-1.2.5m6 0c.9.2 2.3.2 3 0 .6-.3-.1-.5-1.8-.5-1.6 0-2.2.2-1.2.5"/><g fill="#BFBFBF" stroke-width="0"><path d="M115.1 64.1c-22.9 4-42.8 22.2-49.7 45.4-2.8 9.4-2.4 24.8 1 35.2 11.9 36.6 52.7 53.6 87.6 36.5 10.4-5.1 22.1-16.8 27.2-27.2 20.1-40.9-7.2-88-52.5-90.4-4.5-.3-10.6-.1-13.6.5m28.8 57.9c9.9 17.6 18.1 32.2 18.1 32.5 0 .4-1.2.5-2.7.3-2.5-.3-4.4-3.2-19.3-29.5-9.1-16.1-16.7-29.3-17-29.3-.4 0-19.6 33.3-20.8 35.9-.1.4 1.6.5 3.8.3 4.4-.5 4.5-.5 2.9-3-1.3-2-.1-4.8 7.3-17.5 3.7-6.3 4.2-6.8 7-6.5 2.9.3 3.9 1.7 15 21.2 6.5 11.5 11.7 21.5 11.4 22.2-.7 1.9-2.4 1.8-21.6-1.1-9.5-1.5-16.6-2.1-16.8-1.6-1 3.1-6.5 9.1-8.2 9.1-1.1 0-2-.4-2-1 0-1.6 6-10.8 7.4-11.3.7-.3 8.6.6 17.6 1.9 9 1.4 16.7 2.3 17 2.2.4-.2-1.3-3.8-3.8-8.1-5.1-8.8-4.2-8.5-19.2-6.2-5.2.8-9.7 1.5-10 1.5-.4 0-3 4.5-6 10-3.9 7.5-5.9 10.2-7.7 10.6-1.3.4-2.6.4-3 .1-.3-.3 1.8-5 4.7-10.3 4.9-9 5.1-9.6 2.8-9.1-3 .8-5.3-.6-4.4-2.8.3-1 5.8-10.9 12.2-22.1 10.7-19 11.7-20.4 14.3-20.4 2.7 0 3.9 1.9 21 32"/><path d="M116.8 120.7c-3.4 6-5.1 9.9-4.4 10.1 1.2.3 19.6-2.5 20.2-3.1.4-.4-8.9-16.7-9.6-16.7-.3 0-3.1 4.4-6.2 9.7"/></g><path fill="#BFBFBF" fill-opacity=".8" d="m80.9 81.7-3.4 3.8 3.8-3.4c3.4-3.3 4.2-4.1 3.4-4.1-.2 0-1.9 1.7-3.8 3.7m88.5 88.5-2.9 3.3 3.3-2.9c3-2.8 3.7-3.6 2.9-3.6-.2 0-1.6 1.5-3.3 3.2"/><path fill="#BFBFBF" fill-opacity=".3" d="M170 81.5c1.9 1.9 3.6 3.5 3.9 3.5s-1-1.6-2.9-3.5-3.6-3.5-3.9-3.5 1 1.6 2.9 3.5m-89 89c1.9 1.9 3.6 3.5 3.9 3.5s-1-1.6-2.9-3.5-3.6-3.5-3.9-3.5 1 1.6 2.9 3.5"/><path fill="gray" d="M119.7 90.7c-.3.5 1.2.8 3.3.8s3.6-.3 3.3-.8c-.2-.4-1.7-.7-3.3-.7s-3.1.3-3.3.7m13.1 40c.7.3 1.6.2 1.9-.1.4-.3-.2-.6-1.3-.5-1.1 0-1.4.3-.6.6m-23 12c.7.3 1.6.2 1.9-.1.4-.3-.2-.6-1.3-.5-1.1 0-1.4.3-.6.6"/><path d="M108.6 111.3c-6.4 11.1-11.6 21-11.6 22 0 1.2.8 1.7 3 1.7 1.7 0 3 .3 3 .6s-2 4.3-4.5 8.8c-2.5 4.6-4.5 8.6-4.5 9s1 .6 2.2.4c1.7-.2 3.6-2.7 7.4-9.8 2.8-5.2 5.7-9.7 6.5-10.1 1.5-.8 23.9-4.2 24.4-3.7.9 1 10.4 17.3 10.2 17.5-.2.1-8.2-1-17.9-2.4-19.8-3-19.1-3.1-23.2 4.3l-2.5 4.4h2.4c1.7 0 3-1.2 4.9-4.5 1.7-2.9 3.4-4.5 4.6-4.5 1.1 0 9.4 1.1 18.6 2.5s16.9 2.3 17.2 2.1c1.1-1.2-1.3-6.2-11.6-24.1-10.7-18.5-11-19-14.2-19-3 0-3.6.6-8.6 9.3-5.2 8.9-6.9 14.9-4.1 14 .6-.3 3.7-4.8 6.7-10.1s5.7-9.7 6-9.7c.7 0 10 16.5 10 17.7 0 .9-30.8 5.8-31.5 5.1-.4-.4 20.9-37.8 21.5-37.7.3 0 7.9 13.2 17 29.4 13.9 24.8 16.9 29.4 18.8 29.5 1.2 0 2.2-.2 2.2-.5 0-.2-7.9-14.4-17.6-31.5-16.6-29.2-17.8-31-20.4-31-2.7 0-3.7 1.4-14.4 20.3"/><path fill="#404040" d="M119.7 105.7c-.3.5 1.2.8 3.3.8s3.6-.3 3.3-.8c-.2-.4-1.7-.7-3.3-.7s-3.1.3-3.3.7m23.1 42c.7.3 1.6.2 1.9-.1.4-.3-.2-.6-1.3-.5-1.1 0-1.4.3-.6.6M93 154.1c0 .5.9.9 2 .9s2-.2 2-.4-.9-.6-2-.9-2-.1-2 .4m66-.1c-2.3.7-2.3.8-.3.9 1.2.1 2.5-.4 2.8-.9.3-.6.5-1 .3-.9s-1.4.5-2.8.9m-57.2.7c.7.3 1.6.2 1.9-.1.4-.3-.2-.6-1.3-.5-1.1 0-1.4.3-.6.6"/></svg>